<svg width="44" height="44" viewBox="0 0 44 44" fill="none" xmlns="http://www.w3.org/2000/svg">
<rect width="44" height="44" rx="8" fill="white"/>
<rect width="24" height="24" transform="translate(10 10)" fill="white"/>
<path d="M22.02 30.53C19.69 30.53 17.36 30.16 15.15 29.42C14.31 29.13 13.67 28.54 13.39 27.77C13.1 27 13.2 26.15 13.66 25.39L14.81 23.48C15.05 23.08 15.27 22.28 15.27 21.81V18.92C15.27 15.2 18.3 12.17 22.02 12.17C25.74 12.17 28.77 15.2 28.77 18.92V21.81C28.77 22.27 28.99 23.08 29.23 23.49L30.37 25.39C30.8 26.11 30.88 26.98 30.59 27.77C30.3 28.56 29.67 29.16 28.88 29.42C26.68 30.16 24.35 30.53 22.02 30.53ZM22.02 13.67C19.13 13.67 16.77 16.02 16.77 18.92V21.81C16.77 22.54 16.47 23.62 16.1 24.25L14.95 26.16C14.73 26.53 14.67 26.92 14.8 27.25C14.92 27.59 15.22 27.85 15.63 27.99C19.81 29.39 24.24 29.39 28.42 27.99C28.78 27.87 29.06 27.6 29.19 27.24C29.32 26.88 29.29 26.49 29.09 26.16L27.94 24.25C27.56 23.6 27.27 22.53 27.27 21.8V18.92C27.27 16.02 24.92 13.67 22.02 13.67Z" fill="#1A2029"/>
<path d="M23.88 13.94C23.81 13.94 23.74 13.93 23.67 13.91C23.38 13.83 23.1 13.77 22.83 13.73C21.98 13.62 21.16 13.68 20.39 13.91C20.11 14 19.81 13.91 19.62 13.7C19.43 13.49 19.37 13.19 19.48 12.92C19.89 11.87 20.89 11.18 22.03 11.18C23.17 11.18 24.17 11.86 24.58 12.92C24.68 13.19 24.63 13.49 24.44 13.7C24.29 13.86 24.08 13.94 23.88 13.94Z" fill="#1A2029"/>
<path d="M22.02 32.81C21.03 32.81 20.07 32.41 19.37 31.71C18.67 31.01 18.27 30.05 18.27 29.06H19.77C19.77 29.65 20.01 30.23 20.43 30.65C20.85 31.07 21.43 31.31 22.02 31.31C23.26 31.31 24.27 30.3 24.27 29.06H25.77C25.77 31.13 24.09 32.81 22.02 32.81Z" fill="#1A2029"/>
<circle cx="27" cy="15" r="2.5" fill="#F46D22" stroke="#E6EFFE"/>
</svg>
